<svg xmlns="http://www.w3.org/2000/svg" viewBox="0 0 110.52 180.22"><defs><style>.cls-1{fill:#010101;opacity:0.15;}.cls-2{fill:#7ebda8;stroke:#579680;stroke-miterlimit:10;stroke-width:2.59px;}.cls-3{fill:#fff;}</style></defs><title>boutique</title><g id="Calque_2" data-name="Calque 2"><g id="ombre"><ellipse class="cls-1" cx="55.26" cy="171.36" rx="46.54" ry="8.86"/></g><g id="boutique"><path class="cls-2" d="M55.26,1.29c-29.81,0-54,23.56-54,52.62,0,52.62,54,115.76,54,115.76s54-63.14,54-115.76C109.23,24.85,85.07,1.29,55.26,1.29Z"/><g id="boutique-2" data-name="boutique"><path class="cls-3" d="M45.14,27.52h-27l-2.75,11v3.25a3.63,3.63,0,1,0,7.25,0,3.63,3.63,0,0,0,7.25,0,3.63,3.63,0,0,0,7.25,0,3.63,3.63,0,0,0,7.25,0,3.63,3.63,0,1,0,7.25,0,3.63,3.63,0,0,0,7.25,0,3.63,3.63,0,1,0,7.25,0,3.63,3.63,0,0,0,7.25,0,3.63,3.63,0,0,0,7.25,0,3.63,3.63,0,0,0,7.25,0,3.63,3.63,0,1,0,7.25,0V38.52l-2.75-11H45.14"/><path class="cls-3" d="M87.89,47a6.36,6.36,0,0,1-7.25,0,6.36,6.36,0,0,1-7.25,0,6.36,6.36,0,0,1-7.25,0,6.36,6.36,0,0,1-7.25,0,6.36,6.36,0,0,1-7.25,0,6.36,6.36,0,0,1-7.25,0,6.36,6.36,0,0,1-7.25,0,6.36,6.36,0,0,1-7.25,0,6.36,6.36,0,0,1-7.25,0,5.88,5.88,0,0,1-4.5,1V89.48H70.39V55.11a1.38,1.38,0,0,1,1.38-1.38H85.51a1.38,1.38,0,0,1,1.38,1.38V89.48h5.5V48.06a6.27,6.27,0,0,1-.87.09A6.34,6.34,0,0,1,87.89,47Zm-23,32.84a1.38,1.38,0,0,1-1.38,1.38H25a1.38,1.38,0,0,1-1.38-1.38V55.11A1.38,1.38,0,0,1,25,53.73h38.5a1.38,1.38,0,0,1,1.38,1.38Z"/><rect class="cls-3" x="73.14" y="56.48" width="11" height="22"/></g></g></g></svg>