<svg xmlns="http://www.w3.org/2000/svg" viewBox="0 0 110.52 180.22"><defs><style>.cls-1{fill:#010101;opacity:0.15;}.cls-2{fill:#9ad3da;stroke:#6aafaf;stroke-miterlimit:10;stroke-width:2.59px;}.cls-3{fill:#fff;}</style></defs><title>cueillette</title><g id="Calque_2" data-name="Calque 2"><g id="ombre"><ellipse class="cls-1" cx="55.26" cy="171.36" rx="46.54" ry="8.86"/></g><g id="cueillette"><path class="cls-2" d="M55.26,1.29c-29.81,0-54,23.56-54,52.62,0,52.62,54,115.76,54,115.76s54-63.14,54-115.76C109.23,24.85,85.07,1.29,55.26,1.29Z"/><path id="cueillette-2" data-name="cueillette" class="cls-3" d="M73.47,28.09l-1-.26q-1.05-.23-2.14-.37l-1.09-.11q-.57-.74-1.2-1.43a23.58,23.58,0,0,0-10.74-6.79A23.79,23.79,0,0,0,28.32,50.8,19.2,19.2,0,0,0,53,79.26l0,0a17.91,17.91,0,0,0,3.11,2.32A17.92,17.92,0,0,1,53,79.24l0,0v29.14a4.3,4.3,0,0,0,8.6,0V83.66A18.05,18.05,0,0,0,83.32,67a23.26,23.26,0,0,0-9.85-38.87ZM44.07,66.34a4.3,4.3,0,1,1,1.26-3A4.33,4.33,0,0,1,44.07,66.34Zm6.27-23.67a4.3,4.3,0,1,1,1.26-3A4.33,4.33,0,0,1,50.34,42.67ZM63,61.12a4.3,4.3,0,1,1,3-1.26A4.33,4.33,0,0,1,63,61.12ZM73.84,74.2a4.3,4.3,0,1,1,1.26-3A4.32,4.32,0,0,1,73.84,74.2Zm4.25-27.92a4.3,4.3,0,1,1,1.26-3A4.32,4.32,0,0,1,78.09,46.28Z"/></g></g></svg>