<svg xmlns="http://www.w3.org/2000/svg" viewBox="0 0 110.52 180.22"><defs><style>.cls-1{fill:#010101;opacity:0.15;}.cls-2{fill:#8e949a;stroke:#74787c;stroke-miterlimit:10;stroke-width:2.59px;}.cls-3{fill:#fff;}</style></defs><title>distributeur</title><g id="Calque_2" data-name="Calque 2"><g id="ombre"><ellipse class="cls-1" cx="55.26" cy="171.36" rx="46.54" ry="8.86"/></g><g id="distributeur"><path class="cls-2" d="M55.26,1.29c-29.81,0-54,23.56-54,52.62,0,52.62,54,115.76,54,115.76s54-63.14,54-115.76C109.23,24.85,85.07,1.29,55.26,1.29Z"/><path id="distributeur-2" data-name="distributeur" class="cls-3" d="M82,20.54H28.48a2.37,2.37,0,0,0-2.37,2.37v77.51a2.37,2.37,0,0,0,2.37,2.37H82a2.37,2.37,0,0,0,2.37-2.37V22.91A2.37,2.37,0,0,0,82,20.54Zm-18,74.84H31.2V83.09H64.07Zm0-15.75H31.2V27.9H64.07Zm16.61,3.81H69.54V65.19H80.69Zm0-21.84H69.54v-5.7H80.69Zm0-9.42H69.54v-5.7H80.69Zm0-9.42H69.54V37H80.69Zm0-9.42H69.54v-5.7H80.69Z"/></g></g></svg>