<svg xmlns="http://www.w3.org/2000/svg" viewBox="0 0 110.5 180.2"><defs><style>  .cls-1{fill:#010101;opacity:0.15;}.cls-2{fill:#c9d63f;stroke:#b5c422;stroke-miterlimit:10;stroke-width:2.59px;}.cls-3{fill:#fff;}</style></defs><title>  ferme</title><g data-name="Calque 2"><path class="cls-2" d="M55.3 1.3c-29.8 0-54 23.6-54 52.6 0 52.6 54 115.8 54 115.8s54-63.1 54-115.8C109.2 24.9 85.1 1.3 55.3 1.3Z"/><path class="cls-3" d="M32.6 54.7A18.6 18.6 0 1 0 51.2 73.2 18.6 18.6 0 0 0 32.6 54.7Zm0 27.9A9.4 9.4 0 1 1 42 73.2 9.4 9.4 0 0 1 32.6 82.6Z"/><path class="cls-3" d="M83.4 64A13.9 13.9 0 1 0 97.1 77.9 13.8 13.8 0 0 0 83.4 64Zm0 21.6A7.7 7.7 0 1 1 91 77.9 7.6 7.6 0 0 1 83.4 85.6Z"/><path class="cls-3" d="M71.1 41.8h3.6a0.2 0 0 1 0.2V58.4a0.7 0 0 1-0.7H71.5a0.7 0 0 1-0.7-0.7V42a0.2 0 0 1 0.2-0.2Z"/><path class="cls-3" d="M82.9 61.2a15.9 15.9 0 0 1 5.8 1.1V51.7l-5.5-0.5-19-1.8v-22h2.3a1.4 1.4 0 0 0 0-2.7H22.9A1.4 1.4 0 0 0 21.5 26V50.4a25.4 25.4 0 0 0-5.1 3.2 1.4 1.4 0 0 0 1.8 2.1A22.7 22.7 0 0 1 55 76.9a1.4 1.4 0 0 0 1.1 1.6l0.2 0a1.4 1.4 0 0 0 1.4-1.1c0-0.1 0-0.1 0-0.2H67A16 16 0 0 1 82.9 61.2Zm-46.3-13a24.5 24.5 0 0 0-12.4 1.1V27.4H36.6ZM61.5 66.5H57.3v0.7A25.5 25.5 0 0 0 42 49.6V27.4H61.5Z"/></g></svg>