<svg xmlns="http://www.w3.org/2000/svg" viewBox="0 0 110.52 180.22"><defs><style>.cls-1{fill:#010101;opacity:0.15;}.cls-2{fill:#ffdb57;stroke:#fbba30;stroke-miterlimit:10;stroke-width:2.59px;}.cls-3{fill:#fff;}</style></defs><title>generique-o</title><g id="Calque_2" data-name="Calque 2"><g id="ombre"><ellipse class="cls-1" cx="55.26" cy="171.36" rx="46.54" ry="8.86"/></g><g id="generique-o"><path class="cls-2" d="M55.26,1.29c-29.81,0-54,23.56-54,52.62,0,52.62,54,115.76,54,115.76s54-63.14,54-115.76C109.23,24.85,85.07,1.29,55.26,1.29Z"/><path class="cls-3" d="M73.57,29.09A27.41,27.41,0,0,0,48.27,46a21.57,21.57,0,1,0,1.47,23.67A27.33,27.33,0,1,0,73.57,29.09ZM31.14,74a15,15,0,1,1,15-15A15,15,0,0,1,31.14,74Zm42.44,3.3A20.78,20.78,0,1,1,94.35,56.48,20.8,20.8,0,0,1,73.57,77.26Z"/><path class="cls-3" d="M74.46,71.9a17.67,17.67,0,0,1-10.31-3.81,1.32,1.32,0,0,1,1.72-2c.31.27,7.84,6.54,15.31.75s4-15.48,4-15.57a1.32,1.32,0,1,1,2.47-.94c0,.12,4.23,11.53-4.86,18.6A13.33,13.33,0,0,1,74.46,71.9Z"/></g></g></svg>