<svg xmlns="http://www.w3.org/2000/svg" viewBox="0 0 110.52 180.22"><defs><style>.cls-1{fill:#010101;opacity:0.15;}.cls-2{fill:#d6b4cd;stroke:#a87d9f;stroke-miterlimit:10;stroke-width:2.59px;}.cls-3{fill:#fff;}</style></defs><title>livraison</title><g id="Calque_2" data-name="Calque 2"><g id="ombre"><ellipse class="cls-1" cx="55.26" cy="171.36" rx="46.54" ry="8.86"/></g><g id="livraison"><path class="cls-2" d="M55.26,1.29c-29.81,0-54,23.56-54,52.62,0,52.62,54,115.76,54,115.76s54-63.14,54-115.76C109.23,24.85,85.07,1.29,55.26,1.29Z"/><g id="commander"><path class="cls-3" d="M96.55,54.05h-3L91.34,41.47a4.85,4.85,0,0,0-4.79-4H75.2v-4H23.75V74.64h6.62a10.29,10.29,0,0,0,20.58,0H71.53a10.29,10.29,0,0,0,20.58,0h4.44A2.65,2.65,0,0,0,99.2,72V56.7A2.65,2.65,0,0,0,96.55,54.05ZM40.66,80.56a5.92,5.92,0,1,1,5.92-5.92A5.92,5.92,0,0,1,40.66,80.56Zm41.15,0a5.92,5.92,0,1,1,5.92-5.92A5.92,5.92,0,0,1,81.81,80.56ZM75.2,54.05V40.43H86.55A1.86,1.86,0,0,1,88.38,42l2.07,12.08Z"/><path class="cls-3" d="M18.29,68.37H8.9a1.43,1.43,0,0,0,0,2.86h9.39a1.43,1.43,0,1,0,0-2.86Z"/><path class="cls-3" d="M18.29,61.22H8.9a1.43,1.43,0,1,0,0,2.86h9.39a1.43,1.43,0,1,0,0-2.86Z"/><path class="cls-3" d="M18.29,54.07H12.4a1.43,1.43,0,0,0,0,2.86h5.89a1.43,1.43,0,0,0,0-2.86Z"/></g></g></g></svg>