<?xml version="1.0" encoding="utf-8"?>
<!-- Generator: Adobe Illustrator 15.1.0, SVG Export Plug-In . SVG Version: 6.00 Build 0)  -->
<!DOCTYPE svg PUBLIC "-//W3C//DTD SVG 1.1//EN" "http://www.w3.org/Graphics/SVG/1.1/DTD/svg11.dtd">
<svg version="1.1" id="Calque_1" xmlns="http://www.w3.org/2000/svg" xmlns:xlink="http://www.w3.org/1999/xlink" x="0px" y="0px"
	 width="260px" height="430px" viewBox="870 785 260 430" enable-background="new 870 785 260 430" xml:space="preserve">
<title>generique-o</title>
<g>
	<g id="Calque_2">
		<g id="ombre" opacity="0.17">
			<ellipse cx="1000" cy="1188.106" rx="109.096" ry="20.769"/>
		</g>
		<g id="generique-o">
			<path fill="#EA0054" d="M1000,789.441c-69.878,0-126.583,55.227-126.583,123.348c0,123.348,126.583,271.355,126.583,271.355
				s126.582-148.008,126.582-271.355C1126.512,844.668,1069.878,789.441,1000,789.441z"/>
		</g>
	</g>
	<g>
		<path fill="#FFFFFF" d="M1052.833,953.143c-28.042,28.05-73.654,28.05-101.712,0c-28.058-28.05-28.058-73.685,0-101.719
			c28.058-28.065,73.67-28.065,101.712-0.016C1080.859,879.465,1080.859,925.1,1052.833,953.143z M962.041,862.343
			c-22.032,22.017-22.032,57.848,0,79.864c22.001,22.01,57.839,22.01,79.841,0c22.002-22.009,22.002-57.847,0-79.879
			C1019.88,840.326,984.05,840.334,962.041,862.343L962.041,862.343z"/>
		<path fill="#FFFFFF" d="M1085.3,970.657c3.756,3.755,3.756,9.874,0,13.637l0,0c-3.756,3.756-9.85,3.756-13.62-0.008
			l-12.667-12.674c-3.771-3.763-3.771-9.858,0-13.606l0,0c3.74-3.763,9.851-3.763,13.621,0l12.666,12.644V970.657z"/>
	</g>
</g>
</svg>
