<svg xmlns="http://www.w3.org/2000/svg" viewBox="0 0 110.5 180.2"><defs><style>  .cls-1{fill:#010101;opacity:0.15;}.cls-2{fill:#f7cd46;stroke:#c5a23b;stroke-miterlimit:10;stroke-width:2.59px;}.cls-3{fill:#fff;}</style></defs><title>  marche</title><g data-name="Calque 2"><path class="cls-2" d="M55.3 1.3c-29.8 0-54 23.6-54 52.6 0 52.6 54 115.8 54 115.8s54-63.1 54-115.8C109.2 24.9 85.1 1.3 55.3 1.3Z"/><g data-name="marche"><path class="cls-3" d="M79.2 72.3a3.6 3.6 0 0 0-4.7-3.4 3.6 3.6 0 1 0-5 0 3.6 3.6 0 0 0-1.1-0.2 3.6 3.6 0 1 0 2.5 1 3.3 3.3 0 0 0 2.2 0 3.6 3.6 0 1 0 6.1 2.6Z"/><path class="cls-3" d="M84 31.5V26.6a2.3 2.3 0 0 0-2.3-2.3h-53a2.3 2.3 0 0 0-2.3 2.3v4.9l-6 6V93.9h4.8V90.3H85.2v3.6H90V37.5ZM82.8 75.9H44.5V73.5h6a1.2 1.2 0 1 0 0-2.4H43.3l8.4-8.4-1.3-1.3a11.7 11.7 0 0 0-16.5 0L32.5 62.7l8.4 8.4H33.7a1.2 1.2 0 0 0 0 2.4h6v2.4H25.3V49.5h0a5.3 5.3 0 0 0 0.6h1.2a5.4 5.4 0 0 0 5.4-5.4 5.4 5.4 0 0 0 5.4 5.4h1.2a5.4 5.4 0 0 0 5.4-5.4 5.4 5.4 0 1 0 10.8 0 5.4 5.4 0 1 0 10.8 0 5.4 5.4 0 0 0 5.4 5.4h1.2A5.4 5.4 0 0 0 78 44.1a5.4 5.4 0 0 0 5.4 5.4h1.2a5.3 5.3 0 0 0 0.6-0.1h0V75.9Z"/></g></g></svg>