<svg xmlns="http://www.w3.org/2000/svg" viewBox="0 0 110.52 180.22"><defs><style>.cls-1{fill:#010101;opacity:0.15;}.cls-2{fill:#d7c36e;stroke:#b2a25c;stroke-miterlimit:10;stroke-width:2.59px;}.cls-3{fill:#fff;}</style></defs><title>producteur</title><g id="Calque_2" data-name="Calque 2"><g id="ombre"><ellipse class="cls-1" cx="55.26" cy="171.36" rx="46.54" ry="8.86"/></g><g id="producteur"><path class="cls-2" d="M55.26,1.29c-29.81,0-54,23.56-54,52.62,0,52.62,54,115.76,54,115.76s54-63.14,54-115.76C109.23,24.85,85.07,1.29,55.26,1.29Z"/><path id="ferme" class="cls-3" d="M86.63,41.35c0-3-5.83-5.63-14.61-7.12-1.43-6.36-5.89-20.26-16.76-15l-.11,0c-10.8-5.16-15.23,8.66-16.66,15-8.78,1.49-14.61,4.12-14.61,7.12,0,2.78,5,5.25,12.75,6.78a7.7,7.7,0,0,0,.23,2.26c.67,2.69,2.55,4.53,4.19,4.12a1.9,1.9,0,0,0,.42-.17l.17.34c0,.3,0,.6,0,.89,0,2.77,1.94,7.27,5.57,9.94v.79L47,66a.93.93,0,0,0-1.34,0l-3.19,3.63h0l-3.89.78h0l-2.44.49A9.26,9.26,0,0,0,28.7,80V90.42a47.83,47.83,0,0,0,22.2,7.8H51l.93.07.25,0,.76,0h.31l.74,0h2.64l.74,0h.31l.76,0,.25,0,.94-.07h.05a47.82,47.82,0,0,0,21.48-7.33l.72-.47V80a9.26,9.26,0,0,0-7.44-9.08l-6-1.19-.36-.07h0L64.86,66a.93.93,0,0,0-1.34,0l-.24.28v-.79c3.63-2.66,5.57-7.16,5.57-9.93,0-.3,0-.59,0-.89l.17-.34a1.89,1.89,0,0,0,.42.17c1.64.41,3.51-1.44,4.19-4.12a7.7,7.7,0,0,0,.23-2.26h0c7.74-1.53,12.75-4,12.75-6.78h0Z"/></g></g></svg>