<svg xmlns="http://www.w3.org/2000/svg" viewBox="0 0 110.52 180.22"><defs><style>.cls-1{fill:#010101;opacity:0.15;}.cls-2{fill:#ea4b80;stroke:#b33d6d;stroke-miterlimit:10;stroke-width:2.59px;}.cls-3{fill:#fff;}</style></defs><title>restaurant</title><g id="Calque_2" data-name="Calque 2"><g id="ombre"><ellipse class="cls-1" cx="55.26" cy="171.36" rx="46.54" ry="8.86"/></g><g id="Restaurants"><path class="cls-2" d="M55.26,1.29c-29.81,0-54,23.56-54,52.62,0,52.62,54,115.76,54,115.76s54-63.14,54-115.76C109.23,24.85,85.07,1.29,55.26,1.29Z"/><path id="restaurant" class="cls-3" d="M96.42,69.42H94.62A39.41,39.41,0,0,0,58.73,32.2a4.78,4.78,0,1,0-6.94,0A39.41,39.41,0,0,0,15.91,69.42H14.1A2.54,2.54,0,0,0,11.56,72v2.79A2.54,2.54,0,0,0,14.1,77.3H96.42A2.54,2.54,0,0,0,99,74.75V72A2.54,2.54,0,0,0,96.42,69.42Z"/></g></g></svg>