<svg xmlns="http://www.w3.org/2000/svg" viewBox="0 0 110.52 180.22"><defs><style>.cls-1{fill:#010101;opacity:0.15;}.cls-2{fill:#d95559;stroke:#bb3f49;stroke-miterlimit:10;stroke-width:2.59px;}.cls-3{fill:#fff;}</style></defs><title>vin</title><g id="Calque_2" data-name="Calque 2"><g id="ombre"><ellipse class="cls-1" cx="55.26" cy="171.36" rx="46.54" ry="8.86"/></g><g id="vin"><path class="cls-2" d="M55.26,1.29c-29.81,0-54,23.56-54,52.62,0,52.62,54,115.76,54,115.76s54-63.14,54-115.76C109.23,24.85,85.07,1.29,55.26,1.29Z"/><path id="vin-2" data-name="vin" class="cls-3" d="M84.51,42a52.87,52.87,0,0,0-3.68-17.73H29.69A52.88,52.88,0,0,0,26,42,29.25,29.25,0,0,0,52.44,71.13V98.06H44a2.82,2.82,0,0,0,0,5.64H66.54a2.82,2.82,0,0,0,0-5.64H58.08V71.13A29.25,29.25,0,0,0,84.51,42ZM55.26,67.38A24.41,24.41,0,0,1,30.85,43H79.67A24.41,24.41,0,0,1,55.26,67.38Z"/></g></g></svg>